<?xml version="1.0" encoding="utf-8"?>
<!-- Generator: Adobe Illustrator 25.0.0, SVG Export Plug-In . SVG Version: 6.00 Build 0)  -->
<svg version="1.1" id="Layer_1" xmlns="http://www.w3.org/2000/svg" xmlns:xlink="http://www.w3.org/1999/xlink" x="0px" y="0px"
	 viewBox="0 0 773.5 376.1" style="enable-background:new 0 0 773.5 376.1;" xml:space="preserve">
<style type="text/css">
	.st0{clip-path:url(#SVGID_2_);}
	.st1{clip-path:url(#SVGID_4_);}
	.st2{fill:#FFD14E;}
	.st3{clip-path:url(#SVGID_6_);}
	.st4{fill:url(#SVGID_7_);}
	.st5{clip-path:url(#SVGID_9_);}
	.st6{fill:#FFFFFF;}
	.st7{clip-path:url(#SVGID_11_);}
	.st8{fill:url(#SVGID_12_);}
	.st9{clip-path:url(#SVGID_14_);}
	.st10{fill:#FFFFCD;}
	.st11{clip-path:url(#SVGID_16_);}
	.st12{fill:url(#SVGID_17_);}
	.st13{clip-path:url(#SVGID_19_);}
	.st14{clip-path:url(#SVGID_21_);}
	.st15{fill:url(#SVGID_22_);}
	.st16{clip-path:url(#SVGID_24_);}
	.st17{clip-path:url(#SVGID_26_);}
	.st18{fill:url(#SVGID_27_);}
	.st19{clip-path:url(#SVGID_29_);}
	.st20{fill:#8FD400;}
	.st21{font-family:'Baloo';}
	.st22{font-size:234.79px;}
</style>
<g>
	<g>
		<defs>
			<rect id="SVGID_1_" x="-7" width="355" height="355"/>
		</defs>
		<clipPath id="SVGID_2_">
			<use xlink:href="#SVGID_1_"  style="overflow:visible;"/>
		</clipPath>
		<g class="st0">
			<g>
				<g>
					<defs>
						<rect id="SVGID_3_" x="-7" width="355" height="355"/>
					</defs>
					<clipPath id="SVGID_4_">
						<use xlink:href="#SVGID_3_"  style="overflow:visible;"/>
					</clipPath>
					<g class="st1">
						<path class="st2" d="M36.1,73.6c-4.9,22-16.1,69.4-0.3,114.3c33,93.6,123.5,118.9,187.4,106c83.8-16.9,103.5-77.6,103.5-77.6
							s-14.6-8.8-18-9.7c0,0-3.2,9.4-18.5,26.4c0,0-8.3,13-41.6,30.8c-24.6,13.1-83,26.2-139.1-11.8
							C52.5,213.4,24.9,155.1,36.1,73.6"/>
					</g>
				</g>
			</g>
			<g>
				<g>
					<defs>
						<path id="SVGID_5_" d="M159.1,116.4c3.9,5.8,9.8,18.2,14.7,18.6c45.3,3.5,82.1-21.2,82.1-21.2c-23.2-13.3-40.5-12.8-50.8-10.3
							c-18,4.5-21.4,16.8-21.6,17.5c2.2-9.8-0.1-20.1-6.4-27.9c-4.7-5.8-23.5-15-25.4-15.1C151.7,85.5,148.8,100.9,159.1,116.4"/>
					</defs>
					<clipPath id="SVGID_6_">
						<use xlink:href="#SVGID_5_"  style="overflow:visible;"/>
					</clipPath>
					<g class="st3">
						
							<linearGradient id="SVGID_7_" gradientUnits="userSpaceOnUse" x1="-40.1315" y1="1.1952" x2="-39.8015" y2="1.1952" gradientTransform="matrix(-148.221 184.944 184.944 148.221 -5963.1992 7348.4111)">
							<stop  offset="0" style="stop-color:#CAE00D"/>
							<stop  offset="0.14" style="stop-color:#C6E00E"/>
							<stop  offset="0.29" style="stop-color:#BADF12"/>
							<stop  offset="0.43" style="stop-color:#A7DD19"/>
							<stop  offset="0.56" style="stop-color:#8BDB22"/>
							<stop  offset="0.7" style="stop-color:#68D82E"/>
							<stop  offset="0.84" style="stop-color:#3CD53C"/>
							<stop  offset="0.98" style="stop-color:#0AD14D"/>
							<stop  offset="1" style="stop-color:#00D050"/>
						</linearGradient>
						<polygon class="st4" points="119.3,114.8 190.7,25.7 285.4,101.7 214.1,190.7 						"/>
					</g>
				</g>
			</g>
			<g>
				<g>
					<defs>
						<rect id="SVGID_8_" x="-7" width="355" height="355"/>
					</defs>
					<clipPath id="SVGID_9_">
						<use xlink:href="#SVGID_8_"  style="overflow:visible;"/>
					</clipPath>
					<g class="st5">
						<path class="st6" d="M170.3,115.2c4.1,4.8,7.5,10.2,10.2,16c0,0,13.3-16.1,45.7-15.8c0,0-28.1-8.8-44.7,10.8
							C181.5,126.3,180.6,118.4,170.3,115.2"/>
					</g>
				</g>
			</g>
			<g>
				<g>
					<defs>
						<path id="SVGID_10_" d="M117.5,243.6c20.3,13.5,54.8,29.3,91.8,18.2c5.3-1.6-39.5-118.7-39.5-118.7S115.6,242.4,117.5,243.6"
							/>
					</defs>
					<clipPath id="SVGID_11_">
						<use xlink:href="#SVGID_10_"  style="overflow:visible;"/>
					</clipPath>
					<g class="st7">
						
							<linearGradient id="SVGID_12_" gradientUnits="userSpaceOnUse" x1="-45.6226" y1="0.7555" x2="-45.3026" y2="0.7555" gradientTransform="matrix(13.238 -343.0347 -343.0347 -13.238 1026.0284 -15375.2598)">
							<stop  offset="0" style="stop-color:#FFE84F"/>
							<stop  offset="0" style="stop-color:#FFE84F"/>
							<stop  offset="1" style="stop-color:#FFFF65"/>
						</linearGradient>
						<polygon class="st8" points="110.6,272.8 115.7,139.3 219.6,143.3 214.5,276.8 						"/>
					</g>
				</g>
			</g>
			<g>
				<g>
					<defs>
						<rect id="SVGID_13_" x="-7" width="355" height="355"/>
					</defs>
					<clipPath id="SVGID_14_">
						<use xlink:href="#SVGID_13_"  style="overflow:visible;"/>
					</clipPath>
					<g class="st9">
						<path class="st10" d="M140,225.7c-2.4-0.1-7.6,10.6-6,11.9c1.1,0.9,4.3-3.4,5-5.1S141.2,225.8,140,225.7"/>
						<path class="st10" d="M175.5,217.1c-1.3,0.8-0.6,10.1,0.7,10.4c0.9,0.3,1.1-3.9,1-5.3S176.2,216.7,175.5,217.1"/>
						<path class="st10" d="M189.2,240.8c-2,1.3,0,13,2,13.2c1.4,0.1,1.5-5.3,1.2-7S190.3,240.2,189.2,240.8"/>
						<path class="st10" d="M155.1,193.8c-1.7-0.1-4.6,6.5-3.4,7.3c0.8,0.6,2.7-2.1,3.2-3.1S156,193.8,155.1,193.8"/>
						<path class="st10" d="M158.5,224.9c-1.7,0.4-3.1,8.9-1.7,9.5c1,0.4,2.3-3.3,2.5-4.6S159.4,224.6,158.5,224.9"/>
						<path class="st10" d="M167.8,171.4c-1,0.3-1.7,5.4-0.8,5.7c0.6,0.2,1.3-2,1.4-2.8S168.3,171.2,167.8,171.4"/>
						<path class="st10" d="M177.1,189.4c-1,0.6-0.3,5.8,0.7,5.9c0.7,0,0.8-2.4,0.7-3.1S177.6,189.1,177.1,189.4"/>
					</g>
				</g>
			</g>
			<g>
				<g>
					<defs>
						<path id="SVGID_15_" d="M227.3,257.5c27.4-7.2,53.4-29.8,69.5-54.8l-116.1-57.9C180.7,144.9,223.4,258.5,227.3,257.5"/>
					</defs>
					<clipPath id="SVGID_16_">
						<use xlink:href="#SVGID_15_"  style="overflow:visible;"/>
					</clipPath>
					<g class="st11">
						
							<linearGradient id="SVGID_17_" gradientUnits="userSpaceOnUse" x1="-44.4552" y1="2.0682" x2="-44.1252" y2="2.0682" gradientTransform="matrix(-227.7133 -291.1454 -291.1454 227.7133 -9250.6123 -13171.8418)">
							<stop  offset="0" style="stop-color:#FFE84F"/>
							<stop  offset="1" style="stop-color:#FFFF65"/>
						</linearGradient>
						<polygon class="st12" points="125.5,188 252.7,88.5 352,215.4 224.8,314.9 						"/>
					</g>
				</g>
			</g>
			<g>
				<g>
					<defs>
						<rect id="SVGID_18_" x="-7" width="355" height="355"/>
					</defs>
					<clipPath id="SVGID_19_">
						<use xlink:href="#SVGID_18_"  style="overflow:visible;"/>
					</clipPath>
					<g class="st13">
						<path class="st10" d="M230.5,230.2c-1.8,1.6,2,12.8,4.1,12.7c1.4-0.1,0.6-5.4,0-7.1S231.4,229.4,230.5,230.2"/>
						<path class="st10" d="M242.9,208.2c-1.4,1.9,3.9,10.2,5.7,9.5c1.3-0.6-0.3-4.8-1.1-6.1S243.7,207.2,242.9,208.2"/>
						<path class="st10" d="M217.2,196.9c-1.4,1.2,1.3,9.1,2.9,8.9c1.1-0.2,0.6-4,0.2-5.2S218,196.2,217.2,196.9"/>
						<path class="st10" d="M232.4,183.1c-0.6,1.5,4,5.5,5,4.6c0.7-0.6-0.9-2.9-1.6-3.5S232.6,182.3,232.4,183.1"/>
						<path class="st10" d="M205.7,175.7c-1.1,1.2,2.1,8.1,3.5,7.7c1-0.2,0.1-3.6-0.4-4.6S206.4,175.1,205.7,175.7"/>
						<path class="st10" d="M194.1,159.3c-0.5,0.7,1.7,4.5,2.4,4.3c0.5-0.2-0.2-2-0.5-2.6S194.4,158.9,194.1,159.3"/>
						<path class="st10" d="M261.6,195.7c-0.7,2.3,8.5,9.9,10.1,8.7c1.2-0.9-2.3-5-3.7-6.1S262,194.4,261.6,195.7"/>
					</g>
				</g>
			</g>
			<g>
				<g>
					<defs>
						<path id="SVGID_20_" d="M51.1,154.9c1.2,16.9,30,67.9,53.7,80.2c2.6,1.3,56.4-95.7,56.4-95.7S51,152.9,51.1,154.9"/>
					</defs>
					<clipPath id="SVGID_21_">
						<use xlink:href="#SVGID_20_"  style="overflow:visible;"/>
					</clipPath>
					<g class="st14">
						
							<linearGradient id="SVGID_22_" gradientUnits="userSpaceOnUse" x1="-45.3384" y1="-1.6017" x2="-45.0084" y2="-1.6017" gradientTransform="matrix(279.0351 -181.5539 -181.5539 -279.0351 12434.0898 -8469.3955)">
							<stop  offset="0" style="stop-color:#FFE84F"/>
							<stop  offset="1" style="stop-color:#FFFF65"/>
						</linearGradient>
						<polygon class="st15" points="6.6,168.3 128.4,89 205.6,207.6 83.8,286.8 						"/>
					</g>
				</g>
			</g>
			<g>
				<g>
					<defs>
						<rect id="SVGID_23_" x="-7" width="355" height="355"/>
					</defs>
					<clipPath id="SVGID_24_">
						<use xlink:href="#SVGID_23_"  style="overflow:visible;"/>
					</clipPath>
					<g class="st16">
						<path class="st10" d="M108.3,200.9c-2.2-0.8-10.3,7.9-9.2,9.6c0.8,1.2,5.1-2,6.3-3.4S109.5,201.3,108.3,200.9"/>
						<path class="st10" d="M104.4,173.3c-1.6-1.1-9.1,3.8-8.6,5.3c0.4,1.1,4.2-0.5,5.3-1.2S105.2,173.8,104.4,173.3"/>
						<path class="st10" d="M79.8,160.2c-1.3-2-13,0.2-13.1,2.3c-0.1,1.4,5.3,1.4,7.1,1S80.5,161.3,79.8,160.2"/>
						<path class="st10" d="M116.9,153.8c-1.1-1.4-9.9,1-9.9,2.5c0,1.1,4.1,0.7,5.4,0.3S117.4,154.6,116.9,153.8"/>
						<path class="st10" d="M124.3,166.7c-1-0.6-6.8,3.8-6.5,4.8c0.2,0.7,3-0.9,3.9-1.5S124.9,167,124.3,166.7"/>
						<path class="st10" d="M141.1,152.2c-1-1-5.3,1.2-4.9,2.3c0.3,0.8,2.6,0.3,3.2,0S141.6,152.7,141.1,152.2"/>
					</g>
				</g>
			</g>
			<g>
				<g>
					<defs>
						<path id="SVGID_25_" d="M44.3,75.9c-6.2,26.5,0.9,65.7,5.9,70.4c4.3,4.1,105.7-12.8,105.7-12.8S48.6,75.8,44.4,75.8
							C44.4,75.8,44.3,75.8,44.3,75.9"/>
					</defs>
					<clipPath id="SVGID_26_">
						<use xlink:href="#SVGID_25_"  style="overflow:visible;"/>
					</clipPath>
					<g class="st17">
						
							<linearGradient id="SVGID_27_" gradientUnits="userSpaceOnUse" x1="-43.5406" y1="-2.2861" x2="-43.2106" y2="-2.2861" gradientTransform="matrix(360.6515 81.4748 81.4748 -360.6515 15928.5361 2823.0374)">
							<stop  offset="0" style="stop-color:#FFE84F"/>
							<stop  offset="1.000000e-02" style="stop-color:#FFE84F"/>
							<stop  offset="1" style="stop-color:#FFFF65"/>
						</linearGradient>
						<polygon class="st18" points="22,146.7 43.8,50.5 171.9,79.4 150.2,175.7 						"/>
					</g>
				</g>
			</g>
			<g>
				<g>
					<defs>
						<rect id="SVGID_28_" x="-7" width="355" height="355"/>
					</defs>
					<clipPath id="SVGID_29_">
						<use xlink:href="#SVGID_28_"  style="overflow:visible;"/>
					</clipPath>
					<g class="st19">
						<path class="st10" d="M68.9,132.2c-1.3-2-13,0.1-13.1,2.2c-0.1,1.4,5.3,1.4,7.1,1.1S69.6,133.3,68.9,132.2"/>
						<path class="st10" d="M66.7,100.3c-0.3-1.8-11.4-4.8-12.4-3.5c-0.7,0.9,4.1,2.9,5.8,3.3S66.9,101.3,66.7,100.3"/>
						<path class="st10" d="M96.1,116.1c-0.2-1.6-10.1-4.7-11-3.6c-0.6,0.8,3.5,2.8,5,3.2S96.1,117,96.1,116.1"/>
						<path class="st10" d="M83.4,124c-0.4-1.7-8.6-2.9-9.1-1.5c-0.4,1,3.2,2.2,4.4,2.4S83.6,124.9,83.4,124"/>
						<path class="st10" d="M123.5,125c-0.3-1.3-5.6-2.2-6-1.1c-0.2,0.8,2.1,1.7,2.9,1.8C121.2,125.8,123.6,125.7,123.5,125"/>
					</g>
				</g>
			</g>
		</g>
	</g>
</g>
<text transform="matrix(1 0 0 1 365.19 278.78)" class="st20 st21 st22">li</text>
<text transform="matrix(1 0 0 1 497.1401 278.78)" class="st20 st21 st22">v</text>
<text transform="matrix(1 0 0 1 623.9301 278.78)" class="st20 st21 st22">e</text>
</svg>
