<svg id="Layer_1" data-name="Layer 1" xmlns="http://www.w3.org/2000/svg" xmlns:xlink="http://www.w3.org/1999/xlink" viewBox="0 0 909.71 679.68"><defs><style>.cls-1{fill:#ffd14e;}.cls-2{fill:url(#linear-gradient);}.cls-3{fill:#fff;}.cls-4{fill:url(#linear-gradient-2);}.cls-5{fill:#ffffcd;}.cls-6{fill:url(#linear-gradient-3);}.cls-7{fill:url(#linear-gradient-4);}.cls-8{fill:url(#linear-gradient-5);}</style><linearGradient id="linear-gradient" x1="632.09" y1="303.54" x2="483.88" y2="488.49" gradientUnits="userSpaceOnUse"><stop offset="0" stop-color="#cae00d"/><stop offset="0.15" stop-color="#c6e00e"/><stop offset="0.29" stop-color="#badf12"/><stop offset="0.43" stop-color="#a7dd19"/><stop offset="0.56" stop-color="#8bdb22"/><stop offset="0.7" stop-color="#68d82d"/><stop offset="0.84" stop-color="#3dd53c"/><stop offset="0.97" stop-color="#0ad14d"/><stop offset="1" stop-color="#00d050"/></linearGradient><linearGradient id="linear-gradient-2" x1="559.86" y1="812.35" x2="497.2" y2="474.82" gradientTransform="translate(150.15 -104.7) rotate(12.73)" gradientUnits="userSpaceOnUse"><stop offset="0" stop-color="#ffe84f"/><stop offset="1" stop-color="#ffff65"/></linearGradient><linearGradient id="linear-gradient-3" x1="859.47" y1="662.92" x2="573.2" y2="429.11" gradientTransform="translate(150.15 -104.7) rotate(12.73)" gradientUnits="userSpaceOnUse"><stop offset="0" stop-color="#ffe84f"/><stop offset="1" stop-color="#ffff65"/></linearGradient><linearGradient id="linear-gradient-4" x1="235.97" y1="681.17" x2="468.14" y2="442.59" xlink:href="#linear-gradient-3"/><linearGradient id="linear-gradient-5" x1="79.76" y1="428.54" x2="449.5" y2="428.54" gradientTransform="translate(150.15 -104.7) rotate(12.73)" gradientUnits="userSpaceOnUse"><stop offset="0.01" stop-color="#ffe84f"/><stop offset="1" stop-color="#ffff65"/></linearGradient></defs><path class="cls-1" d="M131,224c-15,66.94-49,211-.89,347.67,100.26,284.87,375.78,361.61,570.1,322.52C955.3,842.88,1015,658,1015,658s-44.48-26.85-54.8-29.47c0,0-9.84,28.68-56.15,80.32,0,0-25.34,39.63-126.44,93.58-74.73,39.89-252.37,79.58-423.12-35.9C181.18,649.34,97,472,131,224Z" transform="translate(-105.29 -224)"/><path class="cls-2" d="M483.09,237.4c5.89.31,63.12,28.28,77.36,46,30.38,37.83,20.94,79.08,19.48,84.89,0,0,9.32-39.32,65.66-53.43,31.06-7.78,83.92-9.14,154.4,31.21,0,0-112,74.92-249.92,64.37-14.92-1.14-32.81-38.93-44.61-56.46C473.92,307.12,482.72,260.07,483.09,237.4Z" transform="translate(-105.29 -224)"/><path class="cls-3" d="M539.46,350.61a213,213,0,0,1,30.93,48.59s40.54-49.07,139.06-47.94c0,0-85.55-26.75-136,32.85C573.42,384.11,570.85,360.05,539.46,350.61Z" transform="translate(-105.29 -224)"/><path class="cls-4" d="M537.82,435.56S372.88,737.43,378.63,741.26c61.82,41.16,166.69,89.21,279.43,55.4C674.18,791.83,537.82,435.56,537.82,435.56Z" transform="translate(-105.29 -224)"/><path class="cls-5" d="M447.27,686.67c-7.25-.41-23,32.18-18.26,36.17,3.38,2.83,12.95-10.46,15.34-15.4C446.64,702.71,451.17,686.89,447.27,686.67Z" transform="translate(-105.29 -224)"/><path class="cls-5" d="M555.28,660.35c-4,2.29-1.81,30.62,2,31.71,2.73.78,3.52-11.89,3.18-16.18C560.17,671.77,557.44,659.12,555.28,660.35Z" transform="translate(-105.29 -224)"/><path class="cls-5" d="M597,732.52c-6.15,3.87-.1,39.57,6.08,40.05,4.4.35,4.5-16,3.58-21.43C605.78,746,600.3,730.44,597,732.52Z" transform="translate(-105.29 -224)"/><path class="cls-5" d="M493.11,589.54c-5.05-.23-14,19.81-10.46,22.25,2.52,1.73,8.35-6.45,9.7-9.49S495.83,589.67,493.11,589.54Z" transform="translate(-105.29 -224)"/><path class="cls-5" d="M503.56,684.09c-5.19,1.23-9.32,27.18-5.13,28.95,3,1.26,6.88-10,7.51-13.91C506.53,695.36,506.34,683.42,503.56,684.09Z" transform="translate(-105.29 -224)"/><path class="cls-5" d="M531.63,521.45c-3.09.83-5,16.32-2.51,17.29,1.81.69,3.92-6.06,4.22-8.41S533.28,521,531.63,521.45Z" transform="translate(-105.29 -224)"/><path class="cls-5" d="M560,576.29c-3.06,1.75-.8,17.68,2.2,17.87,2.13.14,2.49-7.18,2.14-9.59S561.65,575.34,560,576.29Z" transform="translate(-105.29 -224)"/><path class="cls-6" d="M571,440.69l353.21,176c-49,76.16-128.07,145-211.52,166.77C701,786.5,571,440.69,571,440.69Z" transform="translate(-105.29 -224)"/><path class="cls-5" d="M722.59,700.35c-5.45,4.8,6.2,39.07,12.38,38.57,4.4-.35,1.89-16.53.12-21.73C733.4,712.22,725.52,697.77,722.59,700.35Z" transform="translate(-105.29 -224)"/><path class="cls-5" d="M760.35,633.54c-4.28,5.78,11.79,31.16,17.4,28.8,4-1.68-.83-14.6-3.27-18.45C772.15,640.21,762.65,630.44,760.35,633.54Z" transform="translate(-105.29 -224)"/><path class="cls-5" d="M682.13,599c-4.42,3.81,4,27.82,8.94,27.06,3.48-.54,1.86-12.07.57-15.71C690.42,606.83,684.51,596.9,682.13,599Z" transform="translate(-105.29 -224)"/><path class="cls-5" d="M728.18,556.92c-1.7,4.55,12.2,16.73,15.28,14,2.18-1.94-2.84-8.89-5-10.74S729.1,554.48,728.18,556.92Z" transform="translate(-105.29 -224)"/><path class="cls-5" d="M647.21,534.54c-3.49,3.72,6.32,24.57,10.53,23.54,3-.72.42-10.9-1.07-14.07S649.08,532.54,647.21,534.54Z" transform="translate(-105.29 -224)"/><path class="cls-5" d="M611.72,484.67c-1.63,2.16,5.12,13.64,7.33,13,1.57-.47-.53-6.12-1.55-7.86S612.6,483.52,611.72,484.67Z" transform="translate(-105.29 -224)"/><path class="cls-5" d="M817.3,595.3c-2.12,7,25.78,30,30.79,26.34,3.55-2.61-7.08-15.07-11.31-18.56C832.73,599.73,818.44,591.57,817.3,595.3Z" transform="translate(-105.29 -224)"/><path class="cls-7" d="M511.81,424.17s-335.43,41-335,47c3.76,51.3,91.31,206.74,163.45,244.13C348.09,719.33,511.81,424.17,511.81,424.17Z" transform="translate(-105.29 -224)"/><path class="cls-5" d="M350.76,611.09c-6.81-2.51-31.43,24-28,29.24,2.4,3.7,15.44-6.2,19.17-10.23C345.46,626.25,354.43,612.45,350.76,611.09Z" transform="translate(-105.29 -224)"/><path class="cls-5" d="M338.9,527.1c-4.75-3.31-27.72,11.62-26,16.25,1.22,3.28,12.71-1.48,16.19-3.75C332.4,537.43,341.45,528.88,338.9,527.1Z" transform="translate(-105.29 -224)"/><path class="cls-5" d="M264.16,487.42c-4-6.06-39.56.73-39.92,6.93-.26,4.4,16.12,4.15,21.51,3.12C250.91,496.49,266.31,490.68,264.16,487.42Z" transform="translate(-105.29 -224)"/><path class="cls-5" d="M376.83,468c-3.39-4.33-30.15,3-30.08,7.71.05,3.34,12.53,2.14,16.59,1C367.22,475.67,378.65,470.33,376.83,468Z" transform="translate(-105.29 -224)"/><path class="cls-5" d="M399.42,507.11c-3.19-1.7-20.69,11.46-19.77,14.44.65,2.12,9.23-2.6,11.88-4.59S401.14,508,399.42,507.11Z" transform="translate(-105.29 -224)"/><path class="cls-5" d="M450.45,463c-3.18-3-16.25,3.57-14.85,7,1,2.41,7.74,1,9.73,0S452.16,464.6,450.45,463Z" transform="translate(-105.29 -224)"/><path class="cls-8" d="M156.13,230.8c1.5-6.36,339.45,175.33,339.45,175.33S187.25,457.43,174.14,445C158.84,430.57,137.11,311.53,156.13,230.8Z" transform="translate(-105.29 -224)"/><path class="cls-5" d="M230.82,402.19c-3.95-6.1-39.57.4-40,6.59-.29,4.4,16.08,4.29,21.48,3.31C217.49,411.14,232.94,405.47,230.82,402.19Z" transform="translate(-105.29 -224)"/><path class="cls-5" d="M224.29,305.26c-1-5.38-34.84-14.46-37.66-10.65-2,2.71,12.39,8.73,17.52,10.11C209.05,306,224.84,308.15,224.29,305.26Z" transform="translate(-105.29 -224)"/><path class="cls-5" d="M313.51,353.32c-.71-4.94-30.67-14.33-33.35-10.94-1.91,2.42,10.76,8.38,15.31,9.81C299.81,353.55,313.9,356,313.51,353.32Z" transform="translate(-105.29 -224)"/><path class="cls-5" d="M275,377.25c-1.27-5.26-26.16-8.91-27.78-4.6-1.16,3.07,9.66,6.79,13.43,7.35C264.26,380.53,275.68,380.07,275,377.25Z" transform="translate(-105.29 -224)"/><path class="cls-5" d="M397,380.32c-.83-4-17.12-6.59-18.18-3.32-.76,2.32,6.32,5.08,8.79,5.48S397.47,382.45,397,380.32Z" transform="translate(-105.29 -224)"/></svg>